<?xml version="1.0" encoding="utf-8" standalone="yes"?> <svg width="250" height="250" viewBox="-1 -1 31 31" xmlns="http://www.w3.org/2000/svg" shape-rendering="crispEdges" id="qr code"><path fill-opacity="1" fill="rgb(0, 0, 0)" id="qr dark pixels" fill-rule="evenodd" d="M 9 0 L 10 0 L 10 1 L 9 1 z M 12 0 L 16 0 L 16 1 L 19 1 L 19 3 L 17 3 L 17 2 L 15 2 L 15 1 L 14 1 L 14 2 L 13 2 L 13 3 L 12 3 L 12 4 L 9 4 L 9 3 L 8 3 L 8 1 L 9 1 L 9 2 L 11 2 L 11 1 L 12 1 z M 19 0 L 20 0 L 20 1 L 19 1 z M 20 1 L 21 1 L 21 2 L 20 2 z M 14 2 L 15 2 L 15 3 L 17 3 L 17 5 L 16 5 L 16 6 L 15 6 L 15 7 L 16 7 L 16 6 L 17 6 L 17 7 L 18 7 L 18 6 L 19 6 L 19 8 L 16 8 L 16 9 L 15 9 L 15 8 L 14 8 L 14 6 L 13 6 L 13 5 L 15 5 L 15 4 L 14 4 z M 20 3 L 21 3 L 21 7 L 20 7 L 20 6 L 19 6 L 19 5 L 20 5 z M 8 4 L 9 4 L 9 5 L 10 5 L 10 6 L 9 6 L 9 7 L 10 7 L 10 8 L 8 8 z M 11 5 L 12 5 L 12 6 L 11 6 z M 17 5 L 18 5 L 18 6 L 17 6 z M 10 6 L 11 6 L 11 7 L 10 7 z M 12 6 L 13 6 L 13 8 L 12 8 z M 0 8 L 2 8 L 2 9 L 3 9 L 3 8 L 4 8 L 4 9 L 6 9 L 6 10 L 7 10 L 7 9 L 6 9 L 6 8 L 8 8 L 8 11 L 6 11 L 6 12 L 5 12 L 5 10 L 4 10 L 4 11 L 2 11 L 2 12 L 0 12 L 0 11 L 1 11 L 1 9 L 0 9 z M 10 8 L 11 8 L 11 9 L 12 9 L 12 10 L 11 10 L 11 11 L 9 11 L 9 10 L 10 10 z M 13 8 L 14 8 L 14 9 L 15 9 L 15 10 L 13 10 z M 20 8 L 21 8 L 21 9 L 20 9 z M 22 8 L 25 8 L 25 9 L 24 9 L 24 12 L 23 12 L 23 11 L 22 11 z M 26 8 L 28 8 L 28 9 L 26 9 z M 18 9 L 19 9 L 19 10 L 20 10 L 20 12 L 21 12 L 21 14 L 25 14 L 25 13 L 26 13 L 26 15 L 25 15 L 25 16 L 24 16 L 24 15 L 20 15 L 20 14 L 19 14 L 19 11 L 16 11 L 16 10 L 18 10 z M 25 9 L 26 9 L 26 10 L 25 10 z M 28 9 L 29 9 L 29 10 L 28 10 z M 26 10 L 28 10 L 28 11 L 27 11 L 27 12 L 26 12 z M 13 11 L 16 11 L 16 12 L 14 12 L 14 14 L 15 14 L 15 15 L 14 15 L 14 16 L 12 16 L 12 14 L 9 14 L 9 13 L 12 13 L 12 12 L 13 12 z M 2 12 L 3 12 L 3 13 L 2 13 z M 6 12 L 7 12 L 7 13 L 6 13 z M 16 12 L 18 12 L 18 17 L 17 17 L 17 13 L 16 13 z M 22 12 L 23 12 L 23 13 L 22 13 z M 28 12 L 29 12 L 29 13 L 28 13 z M 0 13 L 2 13 L 2 14 L 0 14 z M 3 13 L 4 13 L 4 14 L 3 14 z M 4 14 L 5 14 L 5 15 L 4 15 z M 6 14 L 8 14 L 8 15 L 6 15 z M 28 14 L 29 14 L 29 16 L 28 16 z M 1 15 L 4 15 L 4 16 L 1 16 z M 5 15 L 6 15 L 6 16 L 8 16 L 8 18 L 7 18 L 7 17 L 4 17 L 4 16 L 5 16 z M 8 15 L 11 15 L 11 16 L 10 16 L 10 17 L 11 17 L 11 19 L 12 19 L 12 20 L 15 20 L 15 23 L 14 23 L 14 22 L 13 22 L 13 23 L 14 23 L 14 24 L 12 24 L 12 28 L 11 28 L 11 27 L 9 27 L 9 26 L 8 26 L 8 25 L 9 25 L 9 24 L 11 24 L 11 22 L 10 22 L 10 21 L 11 21 L 11 20 L 10 20 L 10 19 L 9 19 L 9 16 L 8 16 zM 10 25 L 11 25 L 11 26 L 10 26 z M 0 16 L 1 16 L 1 17 L 0 17 z M 11 16 L 12 16 L 12 17 L 11 17 z M 15 16 L 16 16 L 16 17 L 15 17 z M 19 16 L 20 16 L 20 17 L 19 17 z M 21 16 L 22 16 L 22 17 L 21 17 z M 25 16 L 26 16 L 26 20 L 25 20 L 25 19 L 24 19 L 24 18 L 25 18 z M 1 17 L 2 17 L 2 18 L 1 18 z M 14 17 L 15 17 L 15 19 L 14 19 z M 16 17 L 17 17 L 17 18 L 16 18 z M 18 17 L 19 17 L 19 20 L 16 20 L 16 19 L 18 19 z M 20 17 L 21 17 L 21 19 L 20 19 z M 22 17 L 24 17 L 24 18 L 23 18 L 23 19 L 22 19 z M 27 17 L 29 17 L 29 19 L 28 19 L 28 20 L 27 20 z M 0 18 L 1 18 L 1 19 L 0 19 z M 2 18 L 4 18 L 4 20 L 5 20 L 5 21 L 3 21 L 3 20 L 2 20 z M 5 18 L 7 18 L 7 19 L 5 19 z M 7 19 L 8 19 L 8 20 L 7 20 z M 0 20 L 1 20 L 1 21 L 0 21 z M 6 20 L 7 20 L 7 21 L 6 21 z M 19 20 L 20 20 L 20 21 L 19 21 z M 26 20 L 27 20 L 27 21 L 26 21 z M 28 20 L 29 20 L 29 22 L 28 22 L 28 23 L 29 23 L 29 24 L 26 24 L 26 22 L 27 22 L 27 21 L 28 21 z M 8 21 L 9 21 L 9 22 L 10 22 L 10 23 L 8 23 z M 16 21 L 17 21 L 17 22 L 16 22 z M 18 21 L 19 21 L 19 23 L 18 23 z M 15 23 L 16 23 L 16 25 L 14 25 L 14 24 L 15 24 z M 19 23 L 20 23 L 20 24 L 19 24 z M 17 24 L 19 24 L 19 25 L 20 25 L 20 26 L 21 26 L 21 29 L 20 29 L 20 28 L 19 28 L 19 27 L 18 27 L 18 29 L 15 29 L 15 28 L 17 28 L 17 27 L 16 27 L 16 26 L 17 26 z M 25 24 L 26 24 L 26 25 L 25 25 z M 13 25 L 14 25 L 14 26 L 15 26 L 15 27 L 13 27 z M 22 25 L 25 25 L 25 26 L 27 26 L 27 27 L 25 27 L 25 29 L 24 29 L 24 26 L 22 26 z M 27 25 L 28 25 L 28 26 L 27 26 z M 28 26 L 29 26 L 29 27 L 28 27 z M 8 27 L 9 27 L 9 29 L 8 29 z M 22 27 L 23 27 L 23 28 L 22 28 z M 27 27 L 28 27 L 28 29 L 27 29 z M 10 28 L 11 28 L 11 29 L 10 29 z M 12 28 L 14 28 L 14 29 L 12 29 z"></path><path id="qr squares" d="M0,0h7h0v0v7v0h0h-7h0v0v-7v0h0zM1,1h5h0v0v5v0h0h-5h0v0v-5v0h0zM2,2h3h0v0v3v0h0h-3h0v0v-3v0h0z M22,0h7h0v0v7v0h0h-7h0v0v-7v0h0zM23,1h5h0v0v5v0h0h-5h0v0v-5v0h0zM24,2h3h0v0v3v0h0h-3h0v0v-3v0h0z M0,22h7h0v0v7v0h0h-7h0v0v-7v0h0zM1,23h5h0v0v5v0h0h-5h0v0v-5v0h0zM2,24h3h0v0v3v0h0h-3h0v0v-3v0h0zM20,20h5h0v0v5v0h0h-5h0v0v-5v0h0zM21,21h3h0v0v3v0h0h-3h0v0v-3v0h0zM22,22h1h0v0v1v0h0h-1h0v0v-1v0h0z" fill-rule="evenodd" fill-opacity="1" fill="rgb(0, 0, 0)"></path></svg>