<?xml version="1.0" encoding="utf-8" standalone="yes"?> <svg width="250" height="250" viewBox="-1 -1 31 31" xmlns="http://www.w3.org/2000/svg" shape-rendering="crispEdges" id="qr code"><path fill-opacity="1" fill="rgb(0, 0, 0)" id="qr dark pixels" fill-rule="evenodd" d="M 8 0 L 11 0 L 11 2 L 12 2 L 12 4 L 11 4 L 11 3 L 10 3 L 10 2 L 9 2 L 9 3 L 10 3 L 10 4 L 8 4 z M 12 0 L 17 0 L 17 1 L 14 1 L 14 2 L 13 2 L 13 1 L 12 1 z M 20 0 L 21 0 L 21 1 L 20 1 z M 18 1 L 20 1 L 20 2 L 18 2 z M 14 2 L 15 2 L 15 3 L 14 3 z M 16 2 L 18 2 L 18 3 L 17 3 L 17 5 L 16 5 L 16 4 L 15 4 L 15 3 L 16 3 z M 20 2 L 21 2 L 21 3 L 20 3 z M 13 3 L 14 3 L 14 6 L 13 6 L 13 8 L 12 8 L 12 6 L 11 6 L 11 5 L 13 5 z M 18 3 L 19 3 L 19 5 L 21 5 L 21 9 L 20 9 L 20 10 L 18 10 L 18 9 L 19 9 L 19 8 L 20 8 L 20 6 L 19 6 L 19 8 L 17 8 L 17 7 L 18 7 L 18 6 L 17 6 L 17 5 L 18 5 z M 8 5 L 9 5 L 9 7 L 8 7 z M 10 6 L 11 6 L 11 7 L 10 7 z M 14 6 L 15 6 L 15 7 L 14 7 z M 16 6 L 17 6 L 17 7 L 16 7 z M 9 7 L 10 7 L 10 8 L 9 8 z M 15 7 L 16 7 L 16 8 L 15 8 z M 0 8 L 2 8 L 2 9 L 1 9 L 1 10 L 0 10 z M 4 8 L 7 8 L 7 9 L 4 9 z M 11 8 L 12 8 L 12 9 L 11 9 z M 14 8 L 15 8 L 15 9 L 14 9 z M 16 8 L 17 8 L 17 9 L 16 9 z M 23 8 L 24 8 L 24 9 L 25 9 L 25 10 L 23 10 L 23 11 L 24 11 L 24 12 L 22 12 L 22 11 L 21 11 L 21 10 L 22 10 L 22 9 L 23 9 z M 25 8 L 29 8 L 29 9 L 27 9 L 27 10 L 26 10 L 26 9 L 25 9 z M 2 9 L 3 9 L 3 10 L 2 10 z M 9 9 L 11 9 L 11 10 L 9 10 z M 12 9 L 14 9 L 14 10 L 13 10 L 13 11 L 12 11 L 12 12 L 11 12 L 11 13 L 10 13 L 10 11 L 11 11 L 11 10 L 12 10 z M 15 9 L 16 9 L 16 10 L 18 10 L 18 11 L 20 11 L 20 13 L 17 13 L 17 11 L 14 11 L 14 10 L 15 10 z M 1 10 L 2 10 L 2 11 L 3 11 L 3 12 L 0 12 L 0 11 L 1 11 z M 4 10 L 5 10 L 5 13 L 4 13 z M 6 10 L 9 10 L 9 11 L 8 11 L 8 15 L 6 15 L 6 14 L 7 14 L 7 13 L 6 13 L 6 12 L 7 12 L 7 11 L 6 11 z M 25 10 L 26 10 L 26 11 L 25 11 z M 28 10 L 29 10 L 29 20 L 27 20 L 27 19 L 28 19 L 28 18 L 27 18 L 27 19 L 26 19 L 26 18 L 25 18 L 25 19 L 24 19 L 24 18 L 23 18 L 23 19 L 21 19 L 21 18 L 22 18 L 22 17 L 24 17 L 24 16 L 25 16 L 25 17 L 28 17 L 28 16 L 27 16 L 27 14 L 25 14 L 25 15 L 24 15 L 24 16 L 23 16 L 23 15 L 22 15 L 22 14 L 23 14 L 23 13 L 28 13 z M 12 12 L 13 12 L 13 13 L 12 13 z M 14 12 L 15 12 L 15 13 L 14 13 z M 21 12 L 22 12 L 22 13 L 21 13 z M 1 13 L 2 13 L 2 16 L 1 16 L 1 18 L 0 18 L 0 15 L 1 15 z M 3 13 L 4 13 L 4 14 L 3 14 z M 5 13 L 6 13 L 6 14 L 5 14 z M 16 13 L 17 13 L 17 14 L 16 14 z M 20 13 L 21 13 L 21 14 L 20 14 z M 4 14 L 5 14 L 5 15 L 4 15 z M 10 14 L 11 14 L 11 15 L 10 15 z M 15 14 L 16 14 L 16 16 L 15 16 z M 18 14 L 19 14 L 19 16 L 17 16 L 17 15 L 18 15 z M 5 15 L 6 15 L 6 16 L 8 16 L 8 17 L 3 17 L 3 20 L 4 20 L 4 19 L 6 19 L 6 20 L 8 20 L 8 21 L 0 21 L 0 20 L 2 20 L 2 16 L 5 16 z M 8 15 L 9 15 L 9 16 L 8 16 z M 12 15 L 13 15 L 13 16 L 12 16 z M 20 15 L 22 15 L 22 17 L 20 17 L 20 18 L 18 18 L 18 17 L 19 17 L 19 16 L 20 16 z M 9 16 L 10 16 L 10 18 L 9 18 z M 11 16 L 12 16 L 12 17 L 11 17 z M 14 16 L 15 16 L 15 17 L 14 17 z M 12 17 L 14 17 L 14 19 L 12 19 L 12 20 L 11 20 L 11 19 L 10 19 L 10 18 L 12 18 z M 16 17 L 17 17 L 17 18 L 16 18 z M 6 18 L 7 18 L 7 19 L 6 19 z M 8 18 L 9 18 L 9 19 L 8 19 z M 15 18 L 16 18 L 16 19 L 15 19 z M 16 19 L 18 19 L 18 20 L 16 20 z M 19 19 L 21 19 L 21 20 L 20 20 L 20 26 L 19 26 L 19 25 L 18 25 L 18 28 L 19 28 L 19 29 L 15 29 L 15 27 L 14 27 L 14 29 L 12 29 L 12 28 L 13 28 L 13 27 L 12 27 L 12 28 L 11 28 L 11 29 L 8 29 L 8 27 L 9 27 L 9 26 L 10 26 L 10 27 L 11 27 L 11 26 L 12 26 L 12 25 L 13 25 L 13 26 L 14 26 L 14 25 L 13 25 L 13 24 L 15 24 L 15 26 L 16 26 L 16 25 L 17 25 L 17 24 L 15 24 L 15 23 L 13 23 L 13 21 L 14 21 L 14 22 L 15 22 L 15 21 L 17 21 L 17 22 L 16 22 L 16 23 L 17 23 L 17 22 L 18 22 L 18 21 L 19 21 zM 18 23 L 19 23 L 19 24 L 18 24 z M 9 20 L 10 20 L 10 24 L 9 24 L 9 25 L 8 25 L 8 23 L 9 23 L 9 22 L 8 22 L 8 21 L 9 21 z M 12 20 L 13 20 L 13 21 L 12 21 z M 14 20 L 15 20 L 15 21 L 14 21 z M 25 21 L 29 21 L 29 23 L 28 23 L 28 24 L 27 24 L 27 23 L 26 23 L 26 25 L 25 25 z M 12 23 L 13 23 L 13 24 L 12 24 z M 11 24 L 12 24 L 12 25 L 11 25 z M 28 24 L 29 24 L 29 28 L 28 28 L 28 29 L 27 29 L 27 26 L 28 26 z M 10 25 L 11 25 L 11 26 L 10 26 z M 23 25 L 24 25 L 24 27 L 23 27 z M 26 25 L 27 25 L 27 26 L 26 26 z M 25 26 L 26 26 L 26 27 L 25 27 z M 22 27 L 23 27 L 23 29 L 20 29 L 20 28 L 22 28 z M 24 27 L 25 27 L 25 29 L 24 29 z"></path><path id="qr squares" d="M0,0h7h0v0v7v0h0h-7h0v0v-7v0h0zM1,1h5h0v0v5v0h0h-5h0v0v-5v0h0zM2,2h3h0v0v3v0h0h-3h0v0v-3v0h0z M22,0h7h0v0v7v0h0h-7h0v0v-7v0h0zM23,1h5h0v0v5v0h0h-5h0v0v-5v0h0zM24,2h3h0v0v3v0h0h-3h0v0v-3v0h0z M0,22h7h0v0v7v0h0h-7h0v0v-7v0h0zM1,23h5h0v0v5v0h0h-5h0v0v-5v0h0zM2,24h3h0v0v3v0h0h-3h0v0v-3v0h0zM20,20h5h0v0v5v0h0h-5h0v0v-5v0h0zM21,21h3h0v0v3v0h0h-3h0v0v-3v0h0zM22,22h1h0v0v1v0h0h-1h0v0v-1v0h0z" fill-rule="evenodd" fill-opacity="1" fill="rgb(0, 0, 0)"></path></svg>