<?xml version="1.0" encoding="utf-8" standalone="yes"?> <svg width="250" height="250" viewBox="-1 -1 31 31" xmlns="http://www.w3.org/2000/svg" shape-rendering="crispEdges" id="qr code"><path fill-opacity="1" fill="rgb(0, 0, 0)" id="qr dark pixels" fill-rule="evenodd" d="M 8 0 L 9 0 L 9 1 L 8 1 z M 11 0 L 16 0 L 16 1 L 11 1 z M 18 0 L 19 0 L 19 1 L 18 1 z M 20 0 L 21 0 L 21 1 L 20 1 z M 9 1 L 11 1 L 11 3 L 10 3 L 10 2 L 9 2 z M 16 1 L 17 1 L 17 3 L 16 3 z M 19 1 L 20 1 L 20 3 L 21 3 L 21 4 L 20 4 L 20 5 L 19 5 L 19 4 L 18 4 L 18 5 L 16 5 L 16 4 L 17 4 L 17 3 L 19 3 z M 12 2 L 15 2 L 15 3 L 14 3 L 14 4 L 12 4 z M 9 4 L 10 4 L 10 5 L 9 5 z M 11 4 L 12 4 L 12 5 L 11 5 z M 10 5 L 11 5 L 11 7 L 12 7 L 12 8 L 13 8 L 13 9 L 14 9 L 14 8 L 16 8 L 16 9 L 15 9 L 15 10 L 17 10 L 17 8 L 18 8 L 18 10 L 19 10 L 19 12 L 18 12 L 18 13 L 17 13 L 17 12 L 16 12 L 16 11 L 13 11 L 13 13 L 12 13 L 12 14 L 11 14 L 11 12 L 12 12 L 12 11 L 11 11 L 11 12 L 10 12 L 10 14 L 9 14 L 9 15 L 6 15 L 6 14 L 8 14 L 8 13 L 6 13 L 6 12 L 7 12 L 7 11 L 8 11 L 8 10 L 9 10 L 9 11 L 10 11 L 10 10 L 12 10 L 12 9 L 10 9 L 10 10 L 9 10 L 9 8 L 10 8 z M 12 5 L 13 5 L 13 7 L 12 7 z M 14 5 L 15 5 L 15 7 L 14 7 z M 18 5 L 19 5 L 19 7 L 20 7 L 20 5 L 21 5 L 21 8 L 20 8 L 20 10 L 19 10 L 19 8 L 18 8 z M 8 6 L 9 6 L 9 8 L 8 8 z M 16 6 L 17 6 L 17 8 L 16 8 z M 13 7 L 14 7 L 14 8 L 13 8 z M 0 8 L 2 8 L 2 9 L 3 9 L 3 8 L 5 8 L 5 9 L 4 9 L 4 11 L 6 11 L 6 12 L 1 12 L 1 13 L 0 13 L 0 11 L 1 11 L 1 10 L 0 10 z M 6 8 L 7 8 L 7 9 L 6 9 z M 22 8 L 23 8 L 23 9 L 22 9 z M 28 8 L 29 8 L 29 9 L 28 9 z M 7 9 L 8 9 L 8 10 L 7 10 z M 21 9 L 22 9 L 22 11 L 23 11 L 23 13 L 24 13 L 24 11 L 26 11 L 26 12 L 25 12 L 25 14 L 26 14 L 26 13 L 27 13 L 27 15 L 28 15 L 28 14 L 29 14 L 29 16 L 28 16 L 28 17 L 29 17 L 29 19 L 28 19 L 28 18 L 27 18 L 27 17 L 26 17 L 26 18 L 25 18 L 25 19 L 28 19 L 28 20 L 27 20 L 27 22 L 25 22 L 25 21 L 26 21 L 26 20 L 24 20 L 24 19 L 22 19 L 22 17 L 23 17 L 23 18 L 24 18 L 24 16 L 21 16 L 21 15 L 23 15 L 23 14 L 22 14 L 22 13 L 21 13 L 21 11 L 20 11 L 20 10 L 21 10 z M 23 9 L 28 9 L 28 10 L 23 10 z M 6 10 L 7 10 L 7 11 L 6 11 z M 27 11 L 29 11 L 29 13 L 27 13 z M 15 12 L 16 12 L 16 13 L 15 13 z M 19 12 L 20 12 L 20 13 L 19 13 z M 1 13 L 5 13 L 5 15 L 4 15 L 4 14 L 3 14 L 3 16 L 2 16 L 2 15 L 1 15 z M 13 13 L 14 13 L 14 14 L 16 14 L 16 13 L 17 13 L 17 16 L 16 16 L 16 15 L 13 15 z M 18 14 L 21 14 L 21 15 L 19 15 L 19 16 L 18 16 z M 0 15 L 1 15 L 1 17 L 3 17 L 3 18 L 2 18 L 2 20 L 4 20 L 4 21 L 0 21 z M 5 15 L 6 15 L 6 16 L 5 16 z M 11 15 L 13 15 L 13 16 L 14 16 L 14 18 L 15 18 L 15 17 L 16 17 L 16 19 L 14 19 L 14 20 L 13 20 L 13 21 L 12 21 L 12 23 L 11 23 L 11 22 L 10 22 L 10 23 L 11 23 L 11 24 L 12 24 L 12 23 L 13 23 L 13 25 L 11 25 L 11 27 L 12 27 L 12 29 L 11 29 L 11 28 L 10 28 L 10 26 L 8 26 L 8 24 L 9 24 L 9 25 L 10 25 L 10 24 L 9 24 L 9 22 L 8 22 L 8 21 L 9 21 L 9 20 L 10 20 L 10 21 L 11 21 L 11 20 L 12 20 L 12 19 L 11 19 L 11 20 L 10 20 L 10 19 L 9 19 L 9 20 L 8 20 L 8 19 L 6 19 L 6 18 L 7 18 L 7 17 L 8 17 L 8 18 L 9 18 L 9 17 L 10 17 L 10 16 L 11 16 L 11 18 L 13 18 L 13 17 L 12 17 L 12 16 L 11 16 z M 3 16 L 5 16 L 5 17 L 3 17 z M 6 16 L 7 16 L 7 17 L 6 17 z M 8 16 L 9 16 L 9 17 L 8 17 z M 17 16 L 18 16 L 18 19 L 17 19 z M 19 16 L 21 16 L 21 18 L 20 18 L 20 19 L 19 19 z M 5 17 L 6 17 L 6 18 L 5 18 z M 3 18 L 4 18 L 4 19 L 3 19 z M 4 19 L 6 19 L 6 20 L 7 20 L 7 21 L 5 21 L 5 20 L 4 20 z M 16 19 L 17 19 L 17 20 L 18 20 L 18 19 L 19 19 L 19 20 L 20 20 L 20 23 L 19 23 L 19 21 L 17 21 L 17 23 L 14 23 L 14 22 L 15 22 L 15 21 L 16 21 z M 20 19 L 22 19 L 22 20 L 20 20 z M 28 20 L 29 20 L 29 22 L 28 22 z M 13 21 L 14 21 L 14 22 L 13 22 z M 17 23 L 19 23 L 19 24 L 17 24 z M 25 23 L 26 23 L 26 24 L 25 24 z M 28 23 L 29 23 L 29 28 L 28 28 L 28 27 L 27 27 L 27 28 L 26 28 L 26 29 L 19 29 L 19 28 L 20 28 L 20 27 L 19 27 L 19 28 L 18 28 L 18 27 L 17 27 L 17 26 L 16 26 L 16 25 L 19 25 L 19 24 L 20 24 L 20 26 L 21 26 L 21 25 L 22 25 L 22 26 L 23 26 L 23 27 L 21 27 L 21 28 L 24 28 L 24 26 L 25 26 L 25 25 L 26 25 L 26 24 L 28 24 z M 14 24 L 16 24 L 16 25 L 14 25 z M 13 25 L 14 25 L 14 26 L 13 26 z M 23 25 L 24 25 L 24 26 L 23 26 z M 15 26 L 16 26 L 16 27 L 15 27 z M 8 27 L 9 27 L 9 29 L 8 29 z M 14 27 L 15 27 L 15 28 L 14 28 z M 13 28 L 14 28 L 14 29 L 13 29 z M 15 28 L 16 28 L 16 29 L 15 29 z"></path><path id="qr squares" d="M0,0h7h0v0v7v0h0h-7h0v0v-7v0h0zM1,1h5h0v0v5v0h0h-5h0v0v-5v0h0zM2,2h3h0v0v3v0h0h-3h0v0v-3v0h0z M22,0h7h0v0v7v0h0h-7h0v0v-7v0h0zM23,1h5h0v0v5v0h0h-5h0v0v-5v0h0zM24,2h3h0v0v3v0h0h-3h0v0v-3v0h0z M0,22h7h0v0v7v0h0h-7h0v0v-7v0h0zM1,23h5h0v0v5v0h0h-5h0v0v-5v0h0zM2,24h3h0v0v3v0h0h-3h0v0v-3v0h0zM20,20h5h0v0v5v0h0h-5h0v0v-5v0h0zM21,21h3h0v0v3v0h0h-3h0v0v-3v0h0zM22,22h1h0v0v1v0h0h-1h0v0v-1v0h0z" fill-rule="evenodd" fill-opacity="1" fill="rgb(0, 0, 0)"></path></svg>